<?xml version="1.0" encoding="UTF-8" standalone="no"?>
<!-- Created with Inkscape (http://www.inkscape.org/) -->

<svg
   xmlns:dc="http://purl.org/dc/elements/1.1/"
   xmlns:cc="http://creativecommons.org/ns#"
   xmlns:rdf="http://www.w3.org/1999/02/22-rdf-syntax-ns#"
   xmlns:svg="http://www.w3.org/2000/svg"
   xmlns="http://www.w3.org/2000/svg"
   xmlns:sodipodi="http://sodipodi.sourceforge.net/DTD/sodipodi-0.dtd"
   xmlns:inkscape="http://www.inkscape.org/namespaces/inkscape"
   width="224.87495"
   height="241.12498"
   id="svg2"
   version="1.1"
   inkscape:version="0.91 r13725"
   sodipodi:docname="ltext.svg">
  <defs
     id="defs4" />
  <sodipodi:namedview
     id="base"
     pagecolor="#ffffff"
     bordercolor="#666666"
     borderopacity="1.0"
     inkscape:pageopacity="0.0"
     inkscape:pageshadow="2"
     inkscape:zoom="1.979899"
     inkscape:cx="86.571985"
     inkscape:cy="113.05525"
     inkscape:document-units="px"
     inkscape:current-layer="layer1"
     showgrid="false"
     fit-margin-top="0"
     fit-margin-left="0"
     fit-margin-right="0"
     fit-margin-bottom="0"
     inkscape:window-width="1366"
     inkscape:window-height="702"
     inkscape:window-x="-4"
     inkscape:window-y="0"
     inkscape:window-maximized="1" />
  <metadata
     id="metadata7">
    <rdf:RDF>
      <cc:Work
         rdf:about="">
        <dc:format>image/svg+xml</dc:format>
        <dc:type
           rdf:resource="http://purl.org/dc/dcmitype/StillImage" />
        <dc:title />
      </cc:Work>
    </rdf:RDF>
  </metadata>
  <g
     inkscape:label="Layer 1"
     inkscape:groupmode="layer"
     id="layer1"
     transform="translate(-254.96879,-469.09376)">
    <path
       style="font-style:normal;font-variant:normal;font-weight:normal;font-stretch:normal;font-size:72px;line-height:125%;font-family:'Bitstream Charter';-inkscape-font-specification:'Bitstream Charter';letter-spacing:0px;word-spacing:0px;fill:#00ad9c;fill-opacity:1;stroke:none"
       d="M 148.8125,108.15625 C 164.26193,86.66474 179.70689,65.179 195.15625,43.6875 186.77638,29.26231 178.41111,14.83144 170.03125,0.40625 c -15.20496,21.70829 -30.42005,43.41666 -45.625,65.125 -12.10184,20.862623 10.65474,51.0747 24.40625,42.625 z"
       transform="translate(254.96879,469.09376)"
       id="path2990"
       inkscape:connector-curvature="0"
       sodipodi:nodetypes="ccccc" />
    <path
       style="font-size:72px;font-style:normal;font-variant:normal;font-weight:normal;font-stretch:normal;line-height:125%;letter-spacing:0px;word-spacing:0px;fill:#002b41;fill-opacity:1;stroke:none;font-family:Bitstream Charter;-inkscape-font-specification:Bitstream Charter"
       d="M 0.5625 0 L 0.5625 48.46875 C 18.33109 49.23573 41.51864 45.53046 57.6875 54.875 C 71.89338 62.99316 77.19024 79.2616 85.53125 92.375 C 88.28791 97.19908 91.05585 102.01967 93.8125 106.84375 C 76.86971 130.95765 60.19918 155.26406 43.03125 179.21875 C 40.63901 183.33455 36.52402 188.64642 33.46875 193.21875 C 32.277398 194.9245 31.097604 196.638 29.90625 198.34375 L 54.28125 241.125 L 54.53125 241.125 C 75.88542 211.14584 97.23965 181.16666 118.59375 151.1875 C 135.96879 181.16666 153.34371 211.14584 170.71875 241.125 L 224.875 241.125 C 199.52086 196.80205 174.16672 152.47915 148.8125 108.15625 C 148.8125 108.15625 125.05652 66.31558 124.40625 65.53125 C 114.3874 47.06577 102.96634 28.65556 85.3125 16.53125 C 69.02263 4.24296 48.40653 -0.64775 28.25 0.25 C 20.36772 0.1659 8.44471 0.08407 0.5625 0 z "
       transform="translate(254.96879,469.09376)"
       id="path3787" />
  </g>
</svg>
